<svg xmlns="http://www.w3.org/2000/svg" xmlns:xlink="http://www.w3.org/1999/xlink" width="16" height="18" viewBox="0 0 16 18"><defs><path id="9804a" d="M968.53 38.38v3.15c0 .42-.02.85.49.85.32 0 .36-.31.36-.97v-3.03h.97v4.6h-.97v-.24l-.36-.12c-.08.16-.14.29-.24.37a.61.61 0 0 1-.37.12c-.16 0-.38-.05-.48-.12-.1-.07-.2-.14-.24-.25-.05-.12-.11-.23-.12-.36-.02-.15 0-.52 0-.97v-3.03zm-4.23 1.94c0-.48-.08-.83 0-1.1.07-.24.3-.46.48-.6.2-.15.41-.24.73-.24.27 0 .54.02.72.12.19.1.27.21.37.36.1.16.2.33.24.49.04.16.12.48.12.84v.85c0 .48-.09.76-.12.98-.03.19-.13.43-.24.6-.11.17-.2.29-.37.37-.17.08-.36.12-.6.12-.27 0-.54-.05-.73-.12-.17-.07-.27-.11-.36-.25-.1-.14-.2-.4-.24-.6v-.97zM962 36.8l.73 2.42c.13-.66.4-1.47.6-2.42h.73l-.85 3.64v2.55h-.85v-2.55l-1.09-3.64zM973.37 51a2.32 2.32 0 0 1-2.17 2.06c-3.36.14-6.7.14-10.05 0-1.14-.08-2.17-.93-2.3-2.07a39.9 39.9 0 0 1 0-5.46 2.56 2.56 0 0 1 2.3-2.18c3.35-.14 6.57-.14 9.92 0a2.57 2.57 0 0 1 2.3 2.18c.13 1.8.13 3.66 0 5.46zm-7.74-8.38c.48 0 .36-.69.36-.85v-1.94c0-.48-.07-.84-.36-.85-.3 0-.36.37-.36.85v1.94c0 .3-.01.85.36.85zm-5.57 3.28h.97v5.34h1.1V45.9h.96v-.97h-3.03zm4.84 3.52c0 .57-.1.67-.12.73-.03.14-.2.24-.36.24-.16 0-.2-.1-.24-.24-.02-.06 0-.19 0-.73v-3.04h-.97v4c.01.14.07.5.12.61.05.11.14.18.24.25.1.06.21.12.37.12.13 0 .26-.05.36-.12.1-.07.17-.22.24-.37l.36.12v.25h.85v-4.86h-.85zm4.12-2.8a.6.6 0 0 0-.24-.24c-.1-.05-.34-.12-.49-.12-.12 0-.14.06-.24.12-.04.03-.6.73-.6.73v-2.18h-.97v6.3h.96V51l.13-.36.24.24c.09.15.13.3.24.37.1.07.25.12.36.12.3 0 .5-.2.6-.49.12-.3.13-.69.13-.6v-2.55-.73c-.01-.1-.07-.25-.12-.36zm-.85 3.53c-.04.15-.2.23-.36.23-.14 0-.32-.08-.37-.23-.02-.07 0-.2 0-.61v-1.22-.72c.05-.15.22-.25.37-.25s.31.1.36.25c.02.06 0 .32 0 .72V50.14zm4.24-1.22v-.48c0-.48-.04-1.09-.13-1.34-.08-.24-.27-.34-.48-.48-.2-.14-.4-.25-.73-.25-.25 0-.53 0-.72.12-.2.12-.4.38-.49.61a3.8 3.8 0 0 0-.12 1.21v1.46a2 2 0 0 0 .32 1.11c.1.14.27.24.45.32.18.09.45.15.69.15.24 0 .32-.04.48-.12.16-.09.38-.2.48-.37.22-.55.25-.36.25-1.21v-.24h-.97v.48c0 .28.04.5 0 .6a.39.39 0 0 1-.37.25c-.3 0-.36-.3-.36-.73v-1.09zm-1.7-1.21c0-.4-.02-.31 0-.37.04-.12.2-.24.36-.24.15 0 .32.1.37.24v1.1h-.73z"/></defs><g><g transform="translate(-958 -36)"><use fill="#21383e" xlink:href="#9804a"/></g></g></svg>