<svg xmlns="http://www.w3.org/2000/svg" xmlns:xlink="http://www.w3.org/1999/xlink" width="21" height="17" viewBox="0 0 21 17"><defs><path id="nawfa" d="M439.32 4753h-17.64c-.93 0-1.68-.76-1.68-1.7v-11.22c0-.94.75-1.7 1.68-1.7h.21v-.3c0-.23.19-.42.42-.42h1.18c.23 0 .42.19.42.42v.3h1.91c.13-.04.29-.1.4-.21a.93.93 0 0 0 .2-.4v-1.35c0-.23.2-.42.43-.42h7.3c.24 0 .42.19.42.42v1.35c.04.13.1.28.21.4.11.1.27.17.4.2h4.14c.93 0 1.68.77 1.68 1.7v11.23c0 .94-.75 1.7-1.68 1.7zm-8.8-13a5.68 5.68 0 0 0-5.65 5.71 5.68 5.68 0 0 0 5.65 5.72 5.68 5.68 0 0 0 5.65-5.72 5.68 5.68 0 0 0-5.65-5.72zm7.1-.3c-.6 0-1.07.48-1.07 1.08 0 .6.48 1.08 1.07 1.08.59 0 1.07-.48 1.07-1.08 0-.6-.48-1.08-1.07-1.08zm-7.1 9.6a3.4 3.4 0 0 1-3.38-3.42 3.4 3.4 0 0 1 3.38-3.42 3.4 3.4 0 0 1 3.38 3.42 3.4 3.4 0 0 1-3.38 3.42z"/></defs><g><g transform="translate(-420 -4736)"><use fill="#1dafe5" xlink:href="#nawfa"/></g></g></svg>