<svg xmlns="http://www.w3.org/2000/svg" xmlns:xlink="http://www.w3.org/1999/xlink" width="36" height="36" viewBox="0 0 36 36"><defs><path id="19xka" d="M1050 29a18 18 0 1 1 0 36 18 18 0 0 1 0-36z"/><path id="19xkc" d="M1044 43.78s-.03-.75.45-1.72c.33-.68 1.63-1.06 1.63-1.06s.56-.14 1.68.94c.48.46.76 1.05.8 1.57.04.55-1.13 1.72-1.13 1.72s.08.99.8 1.83c.47.54 1.26 1.37 1.68 1.76.35.34.75.77 1.28 1.12 1.04.7 1.3.63 1.3.63s1.47-1.24 1.92-1.2c.34.04.81.26 1.43.78.45.39.74.68.97 1.07.14.25.19.43.19.43s.06.62-.9 1.6c-.95.97-2.27.72-2.27.72s-.75-.11-1.99-.7a13.63 13.63 0 0 1-3.69-2.64c-1-1.03-2.31-2.62-2.95-3.72-.8-1.39-1.2-3.13-1.2-3.13z"/><clipPath id="19xkb"><use fill="#fff" xlink:href="#19xka"/></clipPath></defs><g><g transform="translate(-1032 -29)"><use fill="#fff" fill-opacity="0" stroke="#fff" stroke-miterlimit="50" stroke-width="2" clip-path="url(&quot;#19xkb&quot;)" xlink:href="#19xka"/></g><g transform="translate(-1032 -29)"><use fill="#21383e" xlink:href="#19xkc"/></g></g></svg>