<svg xmlns="http://www.w3.org/2000/svg" xmlns:xlink="http://www.w3.org/1999/xlink" width="18" height="18" viewBox="0 0 18 18"><defs><path id="jiepa" d="M920.53 53.54h-7.26a4.85 4.85 0 0 1-4.84-4.85v-7.52a4.85 4.85 0 0 1 4.84-4.86h7.26a4.85 4.85 0 0 1 4.84 4.86v7.52a4.85 4.85 0 0 1-4.84 4.85zm3.26-12.74a3.03 3.03 0 0 0-3.02-3.03h-7.87a3.03 3.03 0 0 0-3.02 3.03v7.89a3.03 3.03 0 0 0 3.02 3.03h7.87a3.03 3.03 0 0 0 3.02-3.03zm-2.42.49a1.1 1.1 0 0 1 0-2.19 1.09 1.09 0 0 1 0 2.19zm-4.53 8a4.42 4.42 0 1 1 0-8.84 4.42 4.42 0 0 1 0 8.85zm0-7.27a2.85 2.85 0 1 0 0 5.69 2.85 2.85 0 0 0 0-5.7z"/></defs><g><g transform="translate(-908 -36)"><use fill="#21383e" xlink:href="#jiepa"/></g></g></svg>