<svg xmlns="http://www.w3.org/2000/svg" xmlns:xlink="http://www.w3.org/1999/xlink" width="16" height="10" viewBox="0 0 16 10"><defs><path id="wg25a" d="M825.1 49.42H825c-.83-.13-1.34-.7-1.82-1.22-.27-.29-.71-1.05-1.2-.97-.7.11-.32 1.32-.61 1.82-.24.4-1.25.32-1.94.25a6 6 0 0 1-4.35-2.55 21.78 21.78 0 0 1-2.55-4.25c-.24-.5-.6-.98-.6-1.58.36-.28.99-.24 1.57-.24.5 0 1.21-.06 1.58.12.21.11.43.73.6 1.1.4.82.73 1.38 1.21 2.06.21.29.6.8.97.73.37-.08.35-.9.36-1.46.02-.64.07-1.48-.12-1.82-.18-.32-.52-.3-.85-.49.28-.53 1.03-.6 1.94-.6.76 0 1.76-.12 2.06.36.3.5.14 1.51.12 2.18-.02.76-.17 1.47.36 1.83.41-.05.61-.43.85-.73a9.9 9.9 0 0 0 1.33-2.07c.16-.35.3-.97.6-1.09.46-.16 1.15-.12 1.82-.12.55 0 1.52-.12 1.7.24.14.3-.24 1.13-.37 1.34-.51.8-1.02 1.36-1.57 2.06-.22.28-.64.65-.6 1.1.01.34.32.6.6.84.59.54.97.98 1.45 1.58.18.22.64.68.6.97-.1.9-3.02.6-3.02.6z"/></defs><g><g transform="translate(-812 -40)"><use fill="#21383e" xlink:href="#wg25a"/></g></g></svg>